<svg width="42" height="34" viewBox="0 0 42 34" fill="none" xmlns="http://www.w3.org/2000/svg">
<path d="M37.8 0.199951H4.2C1.89 0.199951 0.021 2.08995 0.021 4.39995L0 29.6C0 31.91 1.89 33.8 4.2 33.8H37.8C40.11 33.8 42 31.91 42 29.6V4.39995C42 2.08995 40.11 0.199951 37.8 0.199951ZM36.96 9.12495L22.113 18.407C21.441 18.827 20.559 18.827 19.887 18.407L5.04 9.12495C4.515 8.78895 4.2 8.22195 4.2 7.61295C4.2 6.20595 5.733 5.36595 6.93 6.10095L21 14.9L35.07 6.10095C36.267 5.36595 37.8 6.20595 37.8 7.61295C37.8 8.22195 37.485 8.78895 36.96 9.12495Z" fill="#0079C2"/>
<path d="M37.8 0.199951H4.2C1.89 0.199951 0.021 2.08995 0.021 4.39995L0 29.6C0 31.91 1.89 33.8 4.2 33.8H37.8C40.11 33.8 42 31.91 42 29.6V4.39995C42 2.08995 40.11 0.199951 37.8 0.199951ZM36.96 9.12495L22.113 18.407C21.441 18.827 20.559 18.827 19.887 18.407L5.04 9.12495C4.515 8.78895 4.2 8.22195 4.2 7.61295C4.2 6.20595 5.733 5.36595 6.93 6.10095L21 14.9L35.07 6.10095C36.267 5.36595 37.8 6.20595 37.8 7.61295C37.8 8.22195 37.485 8.78895 36.96 9.12495Z" fill="url(#paint0_linear_9_92)"/>
<defs>
<linearGradient id="paint0_linear_9_92" x1="41.6506" y1="0.199949" x2="-4.97758" y2="9.32322" gradientUnits="userSpaceOnUse">
<stop stop-color="#FE47DE"/>
<stop offset="1" stop-color="#A145E3"/>
</linearGradient>
</defs>
</svg>
