<svg width="92" height="96" viewBox="0 0 92 96" fill="none" xmlns="http://www.w3.org/2000/svg">
<path d="M13.0857 48.9143L1.65713 37.4857C0.742848 36.5714 0.285706 35.5048 0.285706 34.2857C0.285706 33.0667 0.742848 32 1.65713 31.0857L13.0857 19.6571C14 18.7429 15.0667 18.2857 16.2857 18.2857C17.5048 18.2857 18.5714 18.7429 19.4857 19.6571L30.9143 31.0857C31.8286 32 32.2857 33.0667 32.2857 34.2857C32.2857 35.5048 31.8286 36.5714 30.9143 37.4857L19.4857 48.9143C18.5714 49.8286 17.5048 50.2857 16.2857 50.2857C15.0667 50.2857 14 49.8286 13.0857 48.9143ZM36.8571 96C35.5619 96 34.4762 95.5619 33.6 94.6857C32.7238 93.8095 32.2857 92.7238 32.2857 91.4286V73.1429C28.4762 72.8381 24.7048 72.419 20.9714 71.8857C17.2381 71.3524 13.5048 70.6667 9.77142 69.8286C8.47618 69.5238 7.42856 68.8 6.62856 67.6571C5.82856 66.5143 5.61904 65.2952 5.99999 64C6.38094 62.7048 7.1619 61.7524 8.34285 61.1429C9.5238 60.5333 10.7619 60.381 12.0571 60.6857C17.619 61.981 23.2381 62.8571 28.9143 63.3143C34.5905 63.7714 40.2857 64 46 64C51.7143 64 57.4095 63.7714 63.0857 63.3143C68.7619 62.8571 74.3809 61.981 79.9428 60.6857C81.2381 60.381 82.4762 60.5333 83.6571 61.1429C84.8381 61.7524 85.619 62.7048 86 64C86.3809 65.2952 86.1714 66.5143 85.3714 67.6571C84.5714 68.8 83.5238 69.5238 82.2286 69.8286C78.4952 70.6667 74.7619 71.3524 71.0286 71.8857C67.2952 72.419 63.5238 72.8381 59.7143 73.1429V91.4286C59.7143 92.7238 59.2762 93.8095 58.4 94.6857C57.5238 95.5619 56.4381 96 55.1428 96H36.8571ZM16.2857 39.3143L21.3143 34.2857L16.2857 29.2571L11.2571 34.2857L16.2857 39.3143ZM46 27.4286C42.1905 27.4286 38.9524 26.0952 36.2857 23.4286C33.619 20.7619 32.2857 17.5238 32.2857 13.7143C32.2857 9.90476 33.619 6.66667 36.2857 4C38.9524 1.33333 42.1905 0 46 0C49.8095 0 53.0476 1.33333 55.7143 4C58.3809 6.66667 59.7143 9.90476 59.7143 13.7143C59.7143 17.5238 58.3809 20.7619 55.7143 23.4286C53.0476 26.0952 49.8095 27.4286 46 27.4286ZM46 59.4286C43.4857 59.4286 41.3333 58.5333 39.5428 56.7429C37.7524 54.9524 36.8571 52.8 36.8571 50.2857C36.8571 47.7714 37.7524 45.619 39.5428 43.8286C41.3333 42.0381 43.4857 41.1429 46 41.1429C48.5143 41.1429 50.6667 42.0381 52.4571 43.8286C54.2476 45.619 55.1428 47.7714 55.1428 50.2857C55.1428 52.8 54.2476 54.9524 52.4571 56.7429C50.6667 58.5333 48.5143 59.4286 46 59.4286ZM46 18.2857C47.2952 18.2857 48.3809 17.8476 49.2571 16.9714C50.1333 16.0952 50.5714 15.0095 50.5714 13.7143C50.5714 12.419 50.1333 11.3333 49.2571 10.4571C48.3809 9.58095 47.2952 9.14286 46 9.14286C44.7048 9.14286 43.619 9.58095 42.7428 10.4571C41.8667 11.3333 41.4286 12.419 41.4286 13.7143C41.4286 15.0095 41.8667 16.0952 42.7428 16.9714C43.619 17.8476 44.7048 18.2857 46 18.2857ZM67.8286 48L62.5714 38.8571C62.1905 38.1714 62 37.4095 62 36.5714C62 35.7333 62.1905 34.9714 62.5714 34.2857L67.8286 25.1429C68.2095 24.381 68.7428 23.8095 69.4286 23.4286C70.1143 23.0476 70.8762 22.8571 71.7143 22.8571H82C82.8381 22.8571 83.6 23.0476 84.2857 23.4286C84.9714 23.8095 85.5048 24.381 85.8857 25.1429L91.1428 34.2857C91.5238 34.9714 91.7143 35.7333 91.7143 36.5714C91.7143 37.4095 91.5238 38.1714 91.1428 38.8571L85.8857 48C85.5048 48.7619 84.9714 49.3333 84.2857 49.7143C83.6 50.0952 82.8381 50.2857 82 50.2857H71.7143C70.8762 50.2857 70.1143 50.0952 69.4286 49.7143C68.7428 49.3333 68.2095 48.7619 67.8286 48ZM74.3428 41.1429H79.3714L81.8857 36.5714L79.3714 32H74.3428L71.8286 36.5714L74.3428 41.1429Z" fill="url(#paint0_linear_21_102)"/>
<defs>
<linearGradient id="paint0_linear_21_102" x1="46" y1="0" x2="46" y2="96" gradientUnits="userSpaceOnUse">
<stop stop-color="#130C1D" stop-opacity="0.4"/>
<stop offset="0.551667" stop-color="#130C1D"/>
</linearGradient>
</defs>
</svg>
