<svg width="207" height="48" viewBox="0 0 207 48" fill="none" xmlns="http://www.w3.org/2000/svg">
<path d="M20.6804 13.3732L25.6726 1.5H53.6858L48.6936 13.3732H20.6804Z" stroke="url(#paint0_linear_20_94)" stroke-width="3"/>
<path d="M20.6804 46.5L25.6726 34.6267H53.6858L48.6936 46.5H20.6804Z" stroke="url(#paint1_linear_20_94)" stroke-width="3"/>
<path d="M2.2343 29.9366L7.09153 18.0634H41.8784L37.0211 29.9366H2.2343Z" stroke="url(#paint2_linear_20_94)" stroke-width="3"/>
<path d="M72.2077 32L74.5597 15.2H85.0957L84.6877 18.128H77.0797L76.5997 21.536H82.6357L82.2277 24.464H76.1917L75.5437 29.072H83.1517L82.7437 32H72.2077ZM83.2195 32L90.5515 23.552L85.6435 15.2H89.2555L92.7115 21.08L97.8115 15.2H101.424L94.1875 23.552L99.1435 32H95.5075L92.0155 26.048L86.8555 32H83.2195ZM106.921 15.2H110.293L114.049 32H110.941L110.269 29.024H103.081L101.581 32H98.4727L106.921 15.2ZM104.569 26.096H109.609L108.049 19.172L104.569 26.096ZM114.036 32L119.652 15.2H122.076L124.656 25.964L130.26 15.2H132.684L133.596 32H130.608L130.056 21.608L124.86 31.616H122.868L120.48 21.608L117.024 32H114.036ZM141.84 32.312C140.704 32.312 139.668 32.088 138.732 31.64C137.796 31.184 137.004 30.556 136.356 29.756C135.716 28.956 135.256 28.032 134.976 26.984C134.696 25.928 134.64 24.8 134.808 23.6C134.976 22.392 135.348 21.264 135.924 20.216C136.5 19.16 137.22 18.236 138.084 17.444C138.956 16.644 139.924 16.02 140.988 15.572C142.052 15.116 143.152 14.888 144.288 14.888C145.648 14.888 146.856 15.204 147.912 15.836C148.968 16.46 149.8 17.296 150.408 18.344L147.588 19.748C147.196 19.164 146.676 18.696 146.028 18.344C145.38 17.992 144.664 17.816 143.88 17.816C143.144 17.816 142.432 17.968 141.744 18.272C141.056 18.568 140.428 18.984 139.86 19.52C139.3 20.048 138.832 20.664 138.456 21.368C138.088 22.064 137.848 22.808 137.736 23.6C137.624 24.4 137.656 25.148 137.832 25.844C138.008 26.54 138.304 27.156 138.72 27.692C139.136 28.22 139.644 28.636 140.244 28.94C140.844 29.236 141.512 29.384 142.248 29.384C143.048 29.384 143.82 29.208 144.564 28.856C145.308 28.496 145.96 28.024 146.52 27.44L148.92 28.856C148.024 29.896 146.96 30.732 145.728 31.364C144.496 31.996 143.2 32.312 141.84 32.312ZM149.312 32L151.664 15.2H158.108C159.02 15.2 159.812 15.428 160.484 15.884C161.156 16.34 161.652 16.952 161.972 17.72C162.3 18.48 162.4 19.324 162.272 20.252C162.168 21.012 161.932 21.712 161.564 22.352C161.196 22.984 160.732 23.532 160.172 23.996C159.62 24.46 159.004 24.812 158.324 25.052L161.384 32H158.012L155.06 25.316H153.176L152.24 32H149.312ZM153.584 22.388H156.764C157.18 22.388 157.572 22.284 157.94 22.076C158.316 21.868 158.632 21.588 158.888 21.236C159.152 20.884 159.312 20.492 159.368 20.06C159.432 19.62 159.384 19.224 159.224 18.872C159.072 18.52 158.836 18.24 158.516 18.032C158.204 17.824 157.84 17.72 157.424 17.72H154.244L153.584 22.388ZM169.111 32.312C167.767 32.312 166.635 31.984 165.715 31.328C164.795 30.672 164.131 29.792 163.723 28.688C163.323 27.576 163.219 26.344 163.411 24.992L164.779 15.2H167.707L166.339 24.992C166.227 25.792 166.271 26.528 166.471 27.2C166.679 27.864 167.035 28.396 167.539 28.796C168.051 29.188 168.711 29.384 169.519 29.384C170.335 29.384 171.051 29.188 171.667 28.796C172.291 28.396 172.795 27.864 173.179 27.2C173.563 26.528 173.811 25.792 173.923 24.992L175.291 15.2H178.219L176.851 24.992C176.707 26.008 176.411 26.96 175.963 27.848C175.523 28.728 174.959 29.504 174.271 30.176C173.591 30.848 172.811 31.372 171.931 31.748C171.059 32.124 170.119 32.312 169.111 32.312ZM183.3 32.312C182.372 32.312 181.5 32.168 180.684 31.88C179.876 31.584 179.192 31.164 178.632 30.62C178.072 30.068 177.704 29.408 177.528 28.64L180.42 27.632C180.492 27.952 180.68 28.244 180.984 28.508C181.288 28.772 181.676 28.984 182.148 29.144C182.62 29.304 183.14 29.384 183.708 29.384C184.292 29.384 184.848 29.296 185.376 29.12C185.912 28.936 186.36 28.684 186.72 28.364C187.08 28.036 187.292 27.656 187.356 27.224C187.42 26.784 187.304 26.424 187.008 26.144C186.72 25.856 186.332 25.628 185.844 25.46C185.364 25.292 184.856 25.164 184.32 25.076C183.152 24.892 182.124 24.608 181.236 24.224C180.348 23.84 179.676 23.308 179.22 22.628C178.772 21.948 178.62 21.068 178.764 19.988C178.908 18.972 179.324 18.084 180.012 17.324C180.708 16.564 181.56 15.972 182.568 15.548C183.584 15.124 184.644 14.912 185.748 14.912C186.668 14.912 187.532 15.056 188.34 15.344C189.156 15.632 189.848 16.052 190.416 16.604C190.984 17.156 191.356 17.82 191.532 18.596L188.628 19.592C188.556 19.272 188.368 18.98 188.064 18.716C187.76 18.452 187.372 18.244 186.9 18.092C186.428 17.932 185.908 17.852 185.34 17.852C184.772 17.844 184.22 17.936 183.684 18.128C183.148 18.312 182.696 18.564 182.328 18.884C181.968 19.204 181.756 19.572 181.692 19.988C181.62 20.524 181.716 20.928 181.98 21.2C182.244 21.472 182.616 21.672 183.096 21.8C183.584 21.92 184.128 22.032 184.728 22.136C185.832 22.312 186.828 22.608 187.716 23.024C188.612 23.44 189.3 23.996 189.78 24.692C190.26 25.38 190.428 26.224 190.284 27.224C190.14 28.24 189.724 29.132 189.036 29.9C188.356 30.66 187.508 31.252 186.492 31.676C185.484 32.1 184.42 32.312 183.3 32.312ZM203.146 15.2H206.074L203.722 32H200.794L201.838 24.464H194.89L193.834 32H190.906L193.258 15.2H196.186L195.298 21.536H202.246L203.146 15.2Z" fill="url(#paint3_linear_20_94)"/>
<defs>
<linearGradient id="paint0_linear_20_94" x1="55.7747" y1="-2.39965e-06" x2="18.2535" y2="14.8732" gradientUnits="userSpaceOnUse">
<stop stop-color="#FE47DE"/>
<stop offset="1" stop-color="#A145E3"/>
</linearGradient>
<linearGradient id="paint1_linear_20_94" x1="55.7747" y1="33.1267" x2="18.2535" y2="48" gradientUnits="userSpaceOnUse">
<stop stop-color="#FE47DE"/>
<stop offset="1" stop-color="#A145E3"/>
</linearGradient>
<linearGradient id="paint2_linear_20_94" x1="43.7457" y1="16.5634" x2="1.91319" y2="35.9841" gradientUnits="userSpaceOnUse">
<stop stop-color="#FE47DE"/>
<stop offset="1" stop-color="#A145E3"/>
</linearGradient>
<linearGradient id="paint3_linear_20_94" x1="205.821" y1="13" x2="124.881" y2="90.7439" gradientUnits="userSpaceOnUse">
<stop stop-color="#FE47DE"/>
<stop offset="1" stop-color="#A145E3"/>
</linearGradient>
</defs>
</svg>
